<svg width="180" height="40" viewBox="0 0 180 40" xmlns="http://www.w3.org/2000/svg" role="img" aria-label="Uniswap v4">
  <defs>
    <linearGradient id="g1" x1="0" y1="0" x2="1" y2="1">
      <stop offset="0%" stop-color="#ff2d55"/>
      <stop offset="100%" stop-color="#ff7a18"/>
    </linearGradient>
  </defs>
  <rect x="1" y="1" width="178" height="38" rx="10" fill="#111827" stroke="#1f2937"/>
  <path d="M20 28c7-3 11-9 11-16 0-2-1-3-3-3-3 0-6 4-6 7 0 2 1 3 2 5l-4 7zm9-2 6 4-2-7 5-5-7-1-3-6-2 7-7 2 6 3 0 3z" fill="url(#g1)"/>
  <text x="50" y="25" fill="#f9fafb" font-family="'Segoe UI', Arial, sans-serif" font-size="14" font-weight="600">Uniswap v4</text>
</svg>
